<?xml version="1.0" standalone="no"?>
<!DOCTYPE svg PUBLIC "-//W3C//DTD SVG 1.1//EN" "http://www.w3.org/Graphics/SVG/1.1/DTD/svg11.dtd">
<svg version="1.1" xmlns="http://www.w3.org/2000/svg" viewBox="0 0 240.85978831414923 178.18711860787153" width="722.5793649424477" height="534.5613558236146"><!-- svg-source:excalidraw --><metadata></metadata><defs><style class="style-fonts">
      </style></defs><g stroke-linecap="round" transform="translate(152.01893894351906 10) rotate(0 25.952013623849325 22.708011920868103)"><path d="M22.08 0.64 C27.39 -0.32, 35.7 0.57, 40.59 3.29 C45.49 6.01, 49.88 12.21, 51.45 16.96 C53.02 21.71, 52.43 27.43, 50.01 31.79 C47.6 36.15, 42.01 40.8, 36.96 43.12 C31.92 45.44, 25.15 46.87, 19.76 45.7 C14.38 44.53, 7.87 40.06, 4.66 36.08 C1.46 32.1, 0.27 26.58, 0.52 21.83 C0.78 17.08, 1.51 11.13, 6.19 7.57 C10.88 4.01, 23.89 1.52, 28.63 0.47 C33.36 -0.58, 34.86 1.08, 34.61 1.29 M20.83 1.32 C26.27 0.1, 34.2 1.15, 39.15 3.38 C44.09 5.6, 48.72 10.39, 50.49 14.67 C52.27 18.96, 51.59 24.58, 49.78 29.1 C47.97 33.62, 44.38 38.97, 39.63 41.78 C34.88 44.58, 26.96 46.29, 21.27 45.91 C15.57 45.54, 9.1 43.4, 5.46 39.51 C1.83 35.61, -0.44 27.73, -0.55 22.55 C-0.66 17.36, 1.1 12.29, 4.8 8.4 C8.5 4.51, 18.83 0.62, 21.64 -0.8 C24.46 -2.21, 21.69 -0.85, 21.69 -0.08" stroke="#279185" stroke-width="4" fill="none"></path></g><g stroke-linecap="round" transform="translate(38.531971826369954 11.532305801442817) rotate(0 25.952013623849325 22.708011920868103)"><path d="M29.06 -0.21 C34.57 0.03, 41.37 4.21, 45.19 7.79 C49.01 11.36, 51.79 16.52, 51.96 21.24 C52.13 25.97, 49.53 32.08, 46.2 36.13 C42.87 40.18, 37.32 44.43, 31.97 45.55 C26.63 46.66, 18.99 45.03, 14.13 42.83 C9.27 40.63, 5.14 36.65, 2.82 32.33 C0.51 28.01, -1.22 21.56, 0.24 16.9 C1.71 12.24, 6.21 7.12, 11.59 4.36 C16.97 1.6, 28.88 0.87, 32.52 0.32 C36.16 -0.22, 33.78 0.78, 33.45 1.08 M31.28 1.08 C36.56 1.51, 42.86 5.02, 46.15 8.49 C49.44 11.96, 51.05 17.17, 51 21.92 C50.95 26.66, 49.41 32.99, 45.84 36.96 C42.26 40.92, 35.21 44.54, 29.56 45.72 C23.92 46.89, 16.7 46.7, 11.96 44.02 C7.22 41.35, 2.97 34.53, 1.12 29.66 C-0.74 24.79, -1.29 19.42, 0.85 14.79 C2.98 10.16, 8.85 4.46, 13.93 1.87 C19 -0.72, 28.5 -0.75, 31.3 -0.75 C34.11 -0.76, 31.2 1.49, 30.76 1.84" stroke="#279185" stroke-width="4" fill="none"></path></g><g stroke-linecap="round"><g transform="translate(65.99942052154165 166.4034382503487) rotate(0 54.93321823029282 -48.91645323998546)"><path d="M0.23 -0.73 C2.43 -11.4, 4.17 -48.07, 12.85 -64.11 C21.54 -80.15, 38.77 -95.71, 52.35 -96.98 C65.94 -98.25, 84.7 -86.61, 94.35 -71.74 C103.99 -56.87, 125.9 -19.63, 110.22 -7.77 C94.54 4.1, 18.46 -1.72, 0.26 -0.55 M-1.1 1.51 C1 -9.5, 3.44 -49.13, 12.19 -65.86 C20.94 -82.59, 38.16 -98.09, 51.39 -98.87 C64.61 -99.66, 81.96 -85.71, 91.55 -70.56 C101.14 -55.4, 123.9 -19.98, 108.94 -7.92 C93.98 4.13, 20.21 0.27, 1.81 1.78" stroke="#279185" stroke-width="4" fill="none"></path></g></g><mask></mask><g stroke-linecap="round" transform="translate(93.55701546562432 17.725266788161207) rotate(0 28.125807733909824 24.610081767171323)"><path d="M23.79 0.61 C29.13 -0.62, 36.62 0.91, 41.69 3.7 C46.77 6.5, 52.23 12.51, 54.24 17.39 C56.26 22.28, 55.77 28.19, 53.78 33.01 C51.79 37.83, 47.59 43.65, 42.31 46.33 C37.04 49, 28.06 50.03, 22.12 49.06 C16.17 48.09, 10.16 44.69, 6.63 40.52 C3.11 36.35, 1.08 29.47, 0.96 24.02 C0.83 18.58, 1.06 11.97, 5.9 7.87 C10.73 3.77, 24.76 0.41, 29.97 -0.56 C35.18 -1.54, 37.03 1.37, 37.15 2.01 M34.54 0.36 C40.04 1.24, 47.58 5.89, 50.97 10.41 C54.36 14.93, 55.62 21.97, 54.9 27.49 C54.19 33.01, 50.83 40.11, 46.67 43.54 C42.52 46.96, 35.86 47.9, 29.97 48.03 C24.08 48.16, 15.99 47.38, 11.36 44.31 C6.73 41.24, 3.45 34.82, 2.2 29.62 C0.94 24.43, 1.37 17.5, 3.84 13.13 C6.3 8.76, 11.91 5.63, 17 3.39 C22.09 1.14, 31.12 0.12, 34.38 -0.35 C37.63 -0.82, 36.54 -0.04, 36.53 0.56" stroke="#279185" stroke-width="4" fill="none"></path></g><g stroke-linecap="round"><g transform="translate(142.6093133855884 77.92092456294358) rotate(0 43.936739923784444 26.15282138320481)"><path d="M-0.38 0.85 C1.99 -1.68, 10.47 -10.51, 14.78 -14.49 C19.09 -18.46, 20.39 -21.49, 25.46 -23.01 C30.54 -24.52, 39.56 -23.96, 45.24 -23.56 C50.93 -23.17, 55.88 -23.09, 59.6 -20.63 C63.32 -18.17, 65.07 -12.82, 67.56 -8.82 C70.05 -4.83, 72.32 -1.68, 74.54 3.34 C76.76 8.36, 78.94 15.4, 80.89 21.31 C82.84 27.22, 85.11 34.01, 86.23 38.8 C87.35 43.6, 87.82 45.85, 87.62 50.11 C87.41 54.36, 86.84 60.77, 85.01 64.34 C83.18 67.91, 79.77 69.76, 76.64 71.52 C73.51 73.28, 70.68 74.17, 66.25 74.91 C61.83 75.65, 54.61 76.15, 50.09 75.95 C45.58 75.75, 41.33 76.67, 39.14 73.71 C36.95 70.75, 37.91 62.3, 36.94 58.19 C35.97 54.09, 35.26 52.93, 33.3 49.08 C31.34 45.22, 28.27 40.62, 25.16 35.08 C22.05 29.54, 18.91 21.84, 14.64 15.84 C10.37 9.85, 2.07 1.82, -0.45 -0.88 M1.62 0.26 C3.89 -2.12, 10.57 -9.12, 14.45 -12.87 C18.33 -16.61, 19.69 -20.59, 24.88 -22.23 C30.08 -23.88, 40 -23.01, 45.63 -22.75 C51.26 -22.48, 54.81 -22.83, 58.66 -20.64 C62.51 -18.44, 65.96 -13.86, 68.74 -9.55 C71.52 -5.24, 73.44 0.09, 75.32 5.21 C77.2 10.33, 78.46 15.7, 80.04 21.17 C81.62 26.64, 83.43 32.77, 84.8 38.02 C86.17 43.28, 88.23 48.2, 88.25 52.71 C88.27 57.21, 86.56 61.96, 84.93 65.05 C83.3 68.15, 81.52 69.74, 78.48 71.3 C75.44 72.86, 71.43 73.62, 66.66 74.42 C61.89 75.22, 54.37 76.26, 49.88 76.09 C45.38 75.92, 41.74 76.22, 39.7 73.41 C37.65 70.6, 38.88 63.18, 37.59 59.24 C36.3 55.3, 33.72 53.69, 31.96 49.78 C30.19 45.86, 29.62 41.86, 27.02 35.74 C24.42 29.62, 20.9 18.94, 16.36 13.07 C11.82 7.2, 2.82 3, -0.21 0.54" stroke="#279185" stroke-width="4" fill="none"></path></g></g><mask></mask><g stroke-linecap="round"><g transform="translate(95.51862992141014 77.88971461412439) rotate(0 -42.367570640792565 31.383385659846226)"><path d="M1.18 0.16 C-0.44 -2.07, -6.29 -9.29, -10.1 -12.54 C-13.92 -15.8, -16.59 -18.03, -21.71 -19.38 C-26.83 -20.73, -35.13 -21.17, -40.83 -20.63 C-46.52 -20.09, -51.92 -18.4, -55.88 -16.14 C-59.84 -13.89, -62.11 -11.1, -64.6 -7.12 C-67.08 -3.15, -68.74 2.32, -70.8 7.71 C-72.86 13.1, -74.94 19.88, -76.96 25.2 C-78.98 30.53, -81.48 34.87, -82.9 39.65 C-84.32 44.42, -85.42 49.09, -85.5 53.88 C-85.59 58.67, -85.35 64.88, -83.42 68.38 C-81.49 71.89, -77.35 72.95, -73.93 74.91 C-70.51 76.87, -67.43 78.77, -62.89 80.14 C-58.34 81.51, -52.12 82.78, -46.64 83.13 C-41.16 83.48, -33.22 85.49, -30.01 82.25 C-26.8 79.02, -28.03 68.27, -27.37 63.72 C-26.72 59.17, -26.82 58.93, -26.1 54.96 C-25.37 50.99, -25.2 46.25, -23.02 39.91 C-20.84 33.56, -16.76 23.61, -13.01 16.9 C-9.25 10.19, -2.82 2.64, -0.48 -0.35 M0.34 -0.8 C-1.37 -3, -7.09 -8.63, -10.87 -11.55 C-14.65 -14.48, -17.47 -16.95, -22.33 -18.35 C-27.2 -19.74, -34.78 -20.41, -40.05 -19.92 C-45.31 -19.44, -50.09 -17.94, -53.92 -15.44 C-57.76 -12.95, -60.37 -8.62, -63.04 -4.95 C-65.72 -1.28, -67.53 1.5, -69.98 6.57 C-72.43 11.64, -75.9 19.67, -77.75 25.46 C-79.59 31.26, -79.81 36.7, -81.05 41.32 C-82.28 45.93, -84.73 48.45, -85.14 53.16 C-85.55 57.86, -85.17 65.96, -83.5 69.57 C-81.84 73.18, -78.71 73.14, -75.16 74.82 C-71.6 76.5, -66.84 78.25, -62.17 79.64 C-57.5 81.04, -52.47 82.88, -47.12 83.19 C-41.77 83.5, -33.51 84.54, -30.06 81.49 C-26.61 78.45, -27.41 69.18, -26.43 64.93 C-25.45 60.68, -25.08 60.61, -24.21 56 C-23.34 51.39, -23.4 43.79, -21.2 37.24 C-18.99 30.69, -14.46 22.68, -10.97 16.7 C-7.48 10.72, -2.15 3.99, -0.25 1.35" stroke="#279185" stroke-width="4" fill="none"></path></g></g><mask></mask></svg>