<?xml version="1.0" standalone="no"?>
<!DOCTYPE svg PUBLIC "-//W3C//DTD SVG 1.1//EN" "http://www.w3.org/Graphics/SVG/1.1/DTD/svg11.dtd">
<svg version="1.1" xmlns="http://www.w3.org/2000/svg" viewBox="0 0 240.93209283811848 198.2337341326347" width="722.7962785143554" height="594.7012023979041"><!-- svg-source:excalidraw --><metadata></metadata><defs><style class="style-fonts">
      </style></defs><g stroke-linecap="round" transform="translate(83.59790589799559 10) rotate(0 54.38277940360649 54.38277940360604)"><path d="M76.47 4.01 C84.91 6.7, 94.01 14.51, 99.38 22.05 C104.76 29.6, 108.12 40.04, 108.72 49.27 C109.32 58.5, 106.75 69.08, 102.98 77.42 C99.21 85.77, 93.41 94.09, 86.11 99.34 C78.8 104.59, 68.34 108.03, 59.16 108.92 C49.99 109.8, 39.14 108.41, 31.04 104.65 C22.94 100.88, 15.66 93.98, 10.57 86.35 C5.48 78.72, 1.6 67.8, 0.52 58.85 C-0.57 49.9, 0.46 40.78, 4.04 32.66 C7.62 24.54, 14.45 15.66, 21.97 10.11 C29.49 4.57, 39.44 0.04, 49.15 -0.64 C58.86 -1.31, 74.82 4.6, 80.24 6.05 C85.66 7.5, 82.08 7.09, 81.7 8.06 M69.49 2.26 C78.02 3.66, 87.29 9.78, 93.74 16.1 C100.18 22.43, 106.14 31.15, 108.17 40.22 C110.2 49.29, 108.6 61.83, 105.92 70.53 C103.24 79.23, 98.3 86.38, 92.09 92.4 C85.87 98.41, 77.42 104.16, 68.64 106.62 C59.86 109.08, 48.47 109.75, 39.43 107.17 C30.38 104.59, 20.69 97.72, 14.35 91.16 C8.01 84.59, 3.47 76.42, 1.38 67.78 C-0.71 59.13, -1.01 48.21, 1.81 39.27 C4.63 30.32, 11.45 20.32, 18.3 14.13 C25.15 7.93, 34.26 3.88, 42.91 2.1 C51.55 0.32, 65.9 3.23, 70.17 3.44 C74.44 3.64, 68.89 2.42, 68.51 3.33" stroke="#279185" stroke-width="4" fill="none"></path></g><g stroke-linecap="round"><g transform="translate(84.56471086517286 72.11721914100963) rotate(0 -3.6255186269077058 58.00829803051329)"><path d="M0 0 C-25.85 1.24, -48.87 -1.13, -73.72 0 M0 0 C-27.37 -0.74, -54.46 0.29, -73.72 0 M-73.72 0 C-75.81 44.35, -73.31 86.36, -73.72 116.02 M-73.72 0 C-73.77 37.05, -74.59 75.73, -73.72 116.02 M-73.72 116.02 C-43.41 115.15, -12.51 117.43, 66.47 114.81 M-73.72 116.02 C-23.8 114.8, 26.42 113.82, 66.47 114.81 M66.47 114.81 C68.18 89.69, 65.29 66.01, 66.47 44.71 M66.47 114.81 C65.85 96.17, 66.19 78.91, 66.47 44.71" stroke="#279185" stroke-width="4" fill="none"></path></g></g><mask></mask><g stroke-linecap="round"><g transform="translate(170.36865170197143 113.20643024595665) rotate(0 21.753111761442597 20.544605552473513)"><path d="M0.37 -0.55 C7.27 6.63, 35.41 34.98, 42.45 41.96 M-0.9 1.77 C6.27 8.72, 36.95 33.46, 44.61 40.3" stroke="#279185" stroke-width="4" fill="none"></path></g></g><mask></mask><g stroke-linecap="round"><g transform="translate(187.2877386275377 95.07883711141949) rotate(0 21.148858656958055 21.753111761442597)"><path d="M-1.06 0.87 C5.78 8.26, 34.16 36.82, 41.4 43.75 M0.59 0.28 C7.77 7.33, 36.79 34.6, 43.64 41.76" stroke="#279185" stroke-width="4" fill="none"></path></g></g><mask></mask><g stroke-linecap="round"><g transform="translate(112.36035367145814 72.11721914100963) rotate(0 25.98288349283439 -7.251037253814047)"><path d="M0 0 C3.82 2.88, 4.98 6.21, 15.71 12.09 M0 0 C5.42 3.08, 10.72 8.11, 15.71 12.09 M15.71 12.09 C26.17 0.92, 38.49 -13.81, 51.97 -26.59 M15.71 12.09 C26.81 0.59, 37.35 -10.33, 51.97 -26.59" stroke="#279185" stroke-width="4" fill="none"></path></g></g><mask></mask><g stroke-linecap="round"><g transform="translate(31.390437670533174 101.12136815626764) rotate(0 32.02541453767935 0)"><path d="M0 0 C12.65 0.92, 29.15 1.31, 64.05 0 M0 0 C17.2 0.96, 33.23 0.77, 64.05 0" stroke="#279185" stroke-width="4" fill="none"></path></g></g><mask></mask><g stroke-linecap="round"><g transform="translate(31.390437670533174 131.334023380492) rotate(0 48.944501463245615 0)"><path d="M0 0 C30.63 0.9, 59.83 0.33, 97.89 0 M0 0 C21.99 -0.18, 42.45 -1.3, 97.89 0" stroke="#279185" stroke-width="4" fill="none"></path></g></g><mask></mask><g stroke-linecap="round"><g transform="translate(31.390437670533174 162.75518481368454) rotate(0 48.944501463245615 0)"><path d="M0 0 C33.29 0.13, 66.73 0.88, 97.89 0 M0 0 C33.08 -1.11, 68.5 -1.09, 97.89 0" stroke="#279185" stroke-width="4" fill="none"></path></g></g><mask></mask><g stroke-linecap="round"><g transform="translate(216.2918876427948 156.47095252704457) rotate(0 6.6467841493295055 -7.855290358298589)"><path d="M0.22 -0.44 C2.45 -2.97, 11.51 -12.94, 13.72 -15.46 M-0.33 0.53 C1.83 -2.15, 11.24 -13.73, 13.51 -16.3" stroke="#279185" stroke-width="4" fill="none"></path></g></g><mask></mask></svg>